# xmcd CD database file
#
# Track frame offsets:
#	150
#	17372
#	45822
#	62697
#	83847
#	103398
#	126713
#	147428
#	163741
#	190481
#	216353
#	246276
#	269017
#	287107
#	304535
#
# Disc length: 4208 seconds
#
# Revision: 0
# Processed by: cddbd v1.5.1PL2 Copyright (c) Steve Scherf et al.
# Submitted via: CDex 1.51
#
DISCID=e5106e0f
DTITLE=Ella Fitzgerald and Louis Armstrong - The complete on Verve-CD1
DYEAR=1900
DGENRE=Jazz
TTITLE0=ELLA AND LOUIS - CAN'T WE BE FRIENDS
TTITLE1=ELLA AND LOUIS - ISN'T IT A LOVELY DAY
TTITLE2=ELLA AND LOUIS - MOONLIGHT IN VERMONT
TTITLE3=ELLA AND LOUIS - THEY CAN'T TAKE THAT AWAY FROM
TTITLE4=ELLA AND LOUIS - UNDER A BLANKET OF BLUE
TTITLE5=ELLA AND LOUIS - TENDERLY
TTITLE6=ELLA AND LOUIS - A FOGGY DAY
TTITLE7=ELLA AND LOUIS - STARS FELL ON ALABAMA
TTITLE8=ELLA AND LOUIS - CHEEK TO CHEEK
TTITLE9=ELLA AND LOUIS - THE NEARNESS OF YOU
TTITLE10=ELLA AND LOUIS - APRIL IN PARIS
TTITLE11=ELLA AND LOUIS - DON'T BE THAT WAY
TTITLE12=ELLA AND LOUIS - MAKIN' WHOOPEE
TTITLE13=ELLA AND LOUIS - THEY ALL LAUGHED
TTITLE14=ELLA AND LOUIS - COMES LOVE
EXTD=
EXTT0=
EXTT1=
EXTT2=
EXTT3=
EXTT4=
EXTT5=
EXTT6=
EXTT7=
EXTT8=
EXTT9=
EXTT10=
EXTT11=
EXTT12=
EXTT13=
EXTT14=
PLAYORDER=
